<svg xmlns:dc="http://purl.org/dc/elements/1.1/" xmlns:cc="http://creativecommons.org/ns#" xmlns:rdf="http://www.w3.org/1999/02/22-rdf-syntax-ns#" xmlns:svg="http://www.w3.org/2000/svg" xmlns="http://www.w3.org/2000/svg" xml:space="preserve" id="svg2" version="1.1" viewBox="138.1 61.4 527.44 410.53"><metadata id="metadata8"><rdf:RDF><cc:Work rdf:about=""><dc:format>image/svg+xml</dc:format><dc:type rdf:resource="http://purl.org/dc/dcmitype/StillImage"/></cc:Work></rdf:RDF></metadata><defs id="defs6"/><g transform="matrix(1.3333333,0,0,-1.3333333,0,533.33333)" id="g10"><g transform="scale(0.1)" id="g12"><path id="path14" style="fill:none;fill-opacity:1;fill-rule:nonzero;stroke:none" d="M 6000,0 H 0 V 4000 H 6000 V 0"/><path id="path16" style="fill:#7fa8de;fill-opacity:1;fill-rule:nonzero;stroke:none" d="m 1739.06,2741.15 c 46.44,-140.4 84.37,-284.85 113.57,-432.8 31.78,-160.47 53.32,-325.05 64.57,-493.07 3.55,-53.15 6.25,-107.17 13.58,-159.13 8.96,-63.57 24.83,-124.04 57.69,-175.83 6.85,-10.82 27.35,-51.49 49.59,-94.56 4.1,-7.92 8.25,-15.93 12.36,-23.85 26.34,-50.38 52.06,-97.19 58.13,-96.42 79.59,10.28 90.47,181.74 90.4,209.42 -0.3,152.59 -10.07,302.41 -29.27,448.76 -3.92,30.18 -8.29,60.2 -13.02,90.08 -0.08,0.54 -0.19,1.04 -0.26,1.57 -10.11,63.34 -21.99,126.55 -29.79,190.93 -1.6,13.05 -3,26.17 -4.22,39.37 -6.85,74.89 -6.77,151.71 9.14,232.55 9.77,49.45 25.42,100.67 21.02,146.42 -6.26,64.57 -51.63,111.19 -79.89,165.88 -51.44,99.67 -45.67,226.01 -71.94,338 -15.62,66.58 -42.56,128.09 -69.46,189.35 l -95.5,217.67 c -3.93,8.92 -23.32,1.54 -24.25,-9.21 -14.13,-163.71 -31.08,-328.49 -75.59,-497.78 -11.84,-45.07 -25.68,-90.79 -27.68,-133.86 -2.59,-55.66 14.69,-104.71 30.82,-153.49"/><path id="path18" style="fill:#a4caed;fill-opacity:1;fill-rule:nonzero;stroke:none" d="m 1584.69,2427.09 c 9.71,-36.53 10.86,-73.69 12.82,-110.73 6.82,-130.2 23.27,-259.98 49.36,-389.04 2.76,-13.87 5.68,-27.73 8.72,-41.57 10.5,-48.16 22.33,-96.21 35.51,-144.14 0.4,-1.42 0.79,-2.86 1.22,-4.28 13.77,-48.74 36.02,-101.22 116.53,-128.97 18.16,-6.21 34.36,1.09 48.32,14.84 6.09,6 11.77,13.21 17,21.1 22.19,33.29 36.59,78.11 42.03,90.36 24.72,55.75 40.33,112.52 31.75,168.62 -8.97,58.3 -43.51,114.31 -54.76,172.44 -9.89,51.06 -1.72,102.69 8.63,154.47 11.02,55.02 24.46,110.14 21.3,164.83 -4.99,85.95 -50.82,168.69 -96.33,250.56 -28.41,51.11 -56.9,102.25 -86.53,153.18 -45.77,78.85 -94.32,157.24 -149.72,234.37 -16.97,23.55 -45.41,50.89 -97.77,50.8 0.05,-91.58 0.1,-183.1 0.18,-274.64 0,-11.48 0.01,-22.98 0.02,-34.46 0.01,-57 0.1,-114.21 17.73,-170 18.96,-59.95 57.94,-117.54 73.99,-177.74"/><path id="path20" style="fill:#a4caed;fill-opacity:1;fill-rule:nonzero;stroke:none" d="m 1849.46,3397.63 c 0.04,-2.31 3.77,-233.97 35.08,-490.43 42.14,-345.52 111.68,-569.23 206.59,-664.86 9.66,-9.72 18.06,-21.77 25.12,-36.09 21.54,-43.28 31.43,-107.29 29.79,-190.93 -2.84,-146.98 -41.29,-354.67 -114.85,-617.24 -1.15,-4.11 -2.3,-8.22 -3.48,-12.32 4.11,-7.92 8.25,-15.93 12.36,-23.85 3.03,10.66 6.06,21.34 9.06,32.06 60.17,214.73 96.91,391.57 110.2,529.7 15.28,158.8 -0.44,266.48 -47.29,321.95 -2.29,2.73 -4.66,5.37 -7.14,7.84 -220.81,222.54 -236.79,1135.19 -236.94,1144.37 -0.07,4.61 -4.33,8.35 -9.36,8.24 -5.11,-0.06 -9.22,-3.84 -9.14,-8.44"/><path id="path22" style="fill:#7fa8de;fill-opacity:1;fill-rule:nonzero;stroke:none" d="m 1557.6,2926.29 c 57.02,-89.01 114.29,-299.34 164.98,-537.72 40.11,-188.49 76.14,-394.48 104.61,-571.9 11.25,-69.85 21.31,-135.3 29.98,-193.47 6.09,6 11.77,13.21 17,21.1 -8.73,57.97 -18.7,122.48 -29.72,190.91 -11.17,69.28 -23.45,142.55 -36.62,217.08 -20.79,117.71 -41.21,224.46 -61.28,320.14 -60.89,290.89 -118.27,479.4 -171.24,562.07 -2.28,3.6 -8.09,4.66 -13.01,2.4 -4.87,-2.29 -6.98,-7.02 -4.7,-10.61"/><path id="path24" style="fill:#d3e9f9;fill-opacity:1;fill-rule:nonzero;stroke:none" d="m 3421.43,3078.3 c -117.76,-47.34 -227.52,-113.14 -327.47,-192.62 -122.76,-97.6 -398.89,-261.21 -810.66,-190.81 -572.91,97.93 -1199.53,-520.3 -883.24,-1456.83 316.3,-936.552 3055.52,-1071.2 3479.23,30.6 395.63,1028.77 -293.68,2277.8 -1457.86,1809.66"/><path id="path26" style="fill:#ffffff;fill-opacity:1;fill-rule:nonzero;stroke:none" d="m 3423.2,525.672 h -865.99 c -107.69,0 -195,87.308 -195,195 V 2792.17 c 0,107.69 87.31,195 195,195 h 865.99 c 107.7,0 195,-87.31 195,-195 V 720.672 c 0,-107.692 -87.3,-195 -195,-195"/><path id="path28" style="fill:#7fa8de;fill-opacity:1;fill-rule:nonzero;stroke:none" d="m 2454.68,2937.38 c -23.53,0 -42.68,-19.14 -42.68,-42.68 V 618.141 c 0,-23.532 19.15,-42.672 42.68,-42.672 h 1071.06 c 23.53,0 42.68,19.14 42.68,42.672 V 2894.7 c 0,23.54 -19.15,42.68 -42.68,42.68 z M 3525.74,475.891 H 2454.68 c -78.44,0 -142.25,63.82 -142.25,142.25 V 2894.7 c 0,78.44 63.81,142.26 142.25,142.26 h 1071.06 c 78.44,0 142.26,-63.82 142.26,-142.26 V 618.141 c 0,-78.43 -63.82,-142.25 -142.26,-142.25"/><path id="path30" style="fill:#7fa8de;fill-opacity:1;fill-rule:nonzero;stroke:none" d="m 3103.81,2890.3 h -254.2 c -25.61,0 -46.37,20.76 -46.37,46.38 v 17.89 c 0,25.61 20.76,46.37 46.37,46.37 h 254.2 c 25.61,0 46.38,-20.76 46.38,-46.37 v -17.89 c 0,-25.62 -20.77,-46.38 -46.38,-46.38"/><path id="path32" style="fill:#7fa8de;fill-opacity:1;fill-rule:nonzero;stroke:none" d="m 1503.26,2257.29 c 33.59,-98.49 36.03,-197.27 62.44,-295.96 22.8,-85.17 63.2,-169.46 101.15,-253.65 86.84,-192.6 179.92,-411.15 143.34,-601.3 -10.32,-53.78 -47.01,-91.54 -125.48,-79.33 -4.88,0.76 -9.92,1.72 -15.12,2.86 -6.05,1.36 -12.31,2.95 -18.84,4.86 -100.32,29.22 -150.24,117.7 -183.49,181.01 -37.73,71.86 -74.63,143.82 -109.75,216.03 -25.6,52.67 -49.92,106.24 -54.12,159.33 -3.28,41.44 5.79,81.46 3.69,122.78 -7.47,145.39 -150.67,289.34 -168.8,435.58 -8.1,65.43 9.41,128.23 3.03,193.59 -6.19,63.43 -34.68,127.28 -56.15,190.9 -42.53,126.04 -57.78,253.46 -45.12,376.13 1.06,10.27 18.21,13.95 30.19,6.35 27.27,-17.27 45.89,-42.66 62.09,-66.3 66.93,-97.59 133.86,-195.21 200.79,-292.8 67.26,-98.09 135.11,-197.3 170.15,-300.08"/><path id="path34" style="fill:#a4caed;fill-opacity:1;fill-rule:nonzero;stroke:none" d="m 1099.13,2816.3 c 2.12,-4.95 209.54,-501.06 399.78,-1038.05 235.97,-665.96 343.29,-1099.371 319.71,-1290.48 -6.71,0.761 -13.61,1.75 -20.73,3 24.58,183.589 -84.54,624.66 -317.89,1283.34 -190.05,536.31 -397.23,1031.83 -399.31,1036.8 -2.4,5.73 -0.22,11.56 4.91,13.06 5.08,1.49 11.16,-1.93 13.53,-7.67"/><path id="path36" style="fill:#7fa8de;fill-opacity:1;fill-rule:nonzero;stroke:none" d="m 3865.15,1184 c 25.62,116.23 86.74,213.71 104.09,333.95 16.35,113.31 -6.78,242.96 4.86,358.39 19.76,196.03 138.91,344.65 136.37,549.66 -1.05,84.49 -22.9,176.02 -22.99,260.15 -0.11,101.75 31.79,189.99 80.36,266.01 6.71,10.51 30.8,-0.8 33.75,-15.8 16.52,-83.8 25.67,-165.8 34.78,-247.65 14.47,-129.91 28.93,-259.81 43.41,-389.73 11.99,-107.64 23.96,-216.29 7.35,-312.79 -11.32,-65.78 -35.84,-125.25 -40.33,-194.09 -7.45,-114.4 40.71,-249.86 21.04,-358.77 -15.95,-88.34 -75.54,-152.61 -94.4,-239.5 -27.99,-128.9 34.69,-301.279 -27.01,-410.4 -40.96,-72.442 -143.92,-46.801 -212.89,47.992 -86.58,119.008 -89.41,257.258 -68.39,352.578"/><path id="path38" style="fill:#a4caed;fill-opacity:1;fill-rule:nonzero;stroke:none" d="m 4169.71,1170.87 c 45.08,51.69 106.16,94.16 127.73,159.33 19.31,58.29 6.32,132.77 3.57,202.05 -8.92,225.02 90.46,396.5 192.4,563.99 114.5,188.15 233.09,374.28 386.32,539.2 7.41,7.98 43.01,-11.77 41.74,-23.16 l -25.46,-228.74 c -18.4,-165.33 -36.85,-330.84 -82.12,-482.41 -81.3,-272.18 -248.77,-498.18 -303.93,-783.98 -18.34,-95 -25.07,-196.138 -55.92,-284.681 -23.32,-66.91 -63.23,-220.137 -204.73,-206.699 -169.09,16.062 -169.63,184.152 -173.07,244.281 -6.83,119.519 24.43,221.679 93.47,300.819"/><path id="path40" style="fill:#a4caed;fill-opacity:1;fill-rule:nonzero;stroke:none" d="m 4006.76,813.809 c 3.63,0 6.92,3.211 7.81,8.011 69.1,370.75 114.28,735.68 158.23,1108.03 0.07,0.53 0.1,1.07 0.1,1.61 v 37.15 l 0.83,9.7 c 2.87,33.27 5.58,64.7 5.61,99.34 14.52,166.69 26.61,362.38 6.39,550.6 -0.61,5.73 -4.65,9.75 -9.08,8.93 -4.4,-0.8 -7.47,-6.1 -6.86,-11.84 20,-186.12 7.93,-380.4 -6.5,-545.91 -0.03,-0.39 -0.05,-0.79 -0.05,-1.18 0,-33.7 -2.67,-64.74 -5.5,-97.6 l -0.88,-10.29 c -0.03,-0.39 -0.05,-0.77 -0.05,-1.16 v -36.94 c -43.87,-371.62 -88.98,-735.82 -157.87,-1105.49 -1.05,-5.629 1.6,-11.301 5.91,-12.668 0.65,-0.192 1.28,-0.293 1.91,-0.293"/><path id="path42" style="fill:#7fa8de;fill-opacity:1;fill-rule:nonzero;stroke:none" d="m 4198.86,673.859 c 4.03,0 7.51,3.36 7.98,7.903 4.12,39.777 14.35,78.008 24.24,114.968 8.59,32.071 17.46,65.219 22.07,98.711 75.42,235.079 168.35,513.509 285.9,796.839 0.06,0.13 0.11,0.27 0.16,0.41 3.31,9.16 5.8,17.44 8.21,25.43 2.42,8.06 4.71,15.67 7.8,24.24 20.36,48.62 40.59,97.07 60.77,145.42 80.08,191.89 162.9,390.32 248.1,583.66 1.95,4.42 0.29,9.76 -3.7,11.92 -3.99,2.16 -8.81,0.32 -10.76,-4.1 -85.27,-193.51 -168.13,-392.02 -248.25,-584 -20.21,-48.41 -40.46,-96.94 -60.84,-145.61 -0.07,-0.15 -0.12,-0.29 -0.18,-0.44 -3.3,-9.16 -5.8,-17.44 -8.2,-25.44 -2.43,-8.06 -4.72,-15.67 -7.81,-24.25 -117.9,-284.23 -211.06,-563.36 -286.62,-798.918 -0.17,-0.543 -0.3,-1.102 -0.38,-1.661 -4.4,-32.55 -12.8,-63.929 -21.7,-97.14 -10.08,-37.711 -20.52,-76.68 -24.79,-118.012 -0.51,-4.891 2.66,-9.309 7.07,-9.867 0.31,-0.043 0.62,-0.063 0.93,-0.063"/><path id="path44" style="fill:#ec8983;fill-opacity:1;fill-rule:nonzero;stroke:none" d="m 3486.6,1245.58 c 0,0 -98.92,-20.89 -115.43,-29.83 -16.51,-8.92 -26,-37.72 -26,-37.72 l 26.24,-21.46 50.66,31.29 c 0,0 48.71,-15.87 73.71,4.18 25,20.06 -9.18,53.54 -9.18,53.54"/><path id="path46" style="fill:#28439e;fill-opacity:1;fill-rule:nonzero;stroke:none" d="m 3763.86,1589.7 c -72.82,26.88 -76.74,-30.7 -76.74,-30.7 0,0 -13.3,-116.39 -2.09,-211.47 l -198.43,-101.95 9.18,-53.54 c 0,0 247.62,28.28 272.32,55.97 21.97,24.63 41.97,206.08 46.12,245.79 v 0 c 0,0 22.45,69.02 -50.36,95.9"/><path id="path48" style="fill:#fac864;fill-opacity:1;fill-rule:nonzero;stroke:none" d="m 3796.48,470.121 h -765.4 v 79.988 h 765.4 v -79.988"/><path id="path50" style="fill:#fac864;fill-opacity:1;fill-rule:nonzero;stroke:none" d="m 3882.58,548.762 h -765.4 v 79.988 h 765.4 v -79.988"/><path id="path52" style="fill:#f7991c;fill-opacity:1;fill-rule:nonzero;stroke:none" d="m 3117.18,628.75 765.4,-79.988 h -765.4 z"/><path id="path54" style="fill:#fbc950;fill-opacity:1;fill-rule:nonzero;stroke:none" d="m 3882.58,628.75 v -79.988 l -765.4,79.988 z"/><path id="path56" style="fill:#fbc950;fill-opacity:1;fill-rule:nonzero;stroke:none" d="m 3204.38,548.961 h -19.72 v 79.789 h 19.72 v -79.789"/><path id="path58" style="fill:#fbc950;fill-opacity:1;fill-rule:nonzero;stroke:none" d="m 3310.21,548.961 h -19.71 v 79.789 h 19.71 v -79.789"/><path id="path60" style="fill:#fbc950;fill-opacity:1;fill-rule:nonzero;stroke:none" d="m 3428.51,548.961 h -19.72 v 79.789 h 19.72 v -79.789"/><path id="path62" style="fill:#fbc950;fill-opacity:1;fill-rule:nonzero;stroke:none" d="m 3540.58,548.961 h -19.72 v 79.789 h 19.72 v -79.789"/><path id="path64" style="fill:#fbc950;fill-opacity:1;fill-rule:nonzero;stroke:none" d="m 3671.32,548.961 h -19.71 v 79.789 h 19.71 v -79.789"/><path id="path66" style="fill:#fbc950;fill-opacity:1;fill-rule:nonzero;stroke:none" d="m 3798.96,548.961 h -19.72 v 79.789 h 19.72 v -79.789"/><path id="path68" style="fill:#fac864;fill-opacity:1;fill-rule:nonzero;stroke:none" d="m 3798.53,471.48 h -765.4 v 79.989 h 765.4 V 471.48"/><path id="path70" style="fill:#f7991c;fill-opacity:1;fill-rule:nonzero;stroke:none" d="m 3033.13,551.469 765.4,-79.989 h -765.4 z"/><path id="path72" style="fill:#fbc950;fill-opacity:1;fill-rule:nonzero;stroke:none" d="M 3798.53,551.469 V 471.48 l -765.4,79.989 z"/><path id="path74" style="fill:#fbc950;fill-opacity:1;fill-rule:nonzero;stroke:none" d="m 3120.32,471.68 h -19.71 v 79.789 h 19.71 V 471.68"/><path id="path76" style="fill:#fbc950;fill-opacity:1;fill-rule:nonzero;stroke:none" d="m 3226.16,471.68 h -19.71 v 79.789 h 19.71 V 471.68"/><path id="path78" style="fill:#fbc950;fill-opacity:1;fill-rule:nonzero;stroke:none" d="m 3344.45,471.68 h -19.71 v 79.789 h 19.71 V 471.68"/><path id="path80" style="fill:#fbc950;fill-opacity:1;fill-rule:nonzero;stroke:none" d="m 3456.52,471.68 h -19.71 v 79.789 h 19.71 V 471.68"/><path id="path82" style="fill:#fbc950;fill-opacity:1;fill-rule:nonzero;stroke:none" d="m 3587.28,471.68 h -19.72 v 79.789 h 19.72 V 471.68"/><path id="path84" style="fill:#fbc950;fill-opacity:1;fill-rule:nonzero;stroke:none" d="m 3714.9,471.68 h -19.71 v 79.789 h 19.71 V 471.68"/><path id="path86" style="fill:#f7991c;fill-opacity:1;fill-rule:nonzero;stroke:none" d="m 3615.28,1420.8 c 8.43,-209.37 -154.46,-385.94 -363.82,-394.36 -209.37,-8.44 -385.94,154.45 -394.37,363.81 -8.43,209.38 154.45,385.94 363.83,394.38 209.36,8.43 385.93,-154.46 394.36,-363.83"/><path id="path88" style="fill:#fbc950;fill-opacity:1;fill-rule:nonzero;stroke:none" d="m 3564.04,1412.94 c 8.44,-209.38 -154.45,-385.94 -363.83,-394.38 -209.36,-8.42 -385.92,154.47 -394.36,363.83 -8.43,209.38 154.46,385.94 363.83,394.37 209.37,8.44 385.94,-154.46 394.36,-363.82"/><path id="path90" style="fill:#f7991c;fill-opacity:1;fill-rule:nonzero;stroke:none" d="m 3077.71,1694.98 c -45.74,-17.2 -87.15,-44.96 -121.24,-81.91 -57.48,-62.32 -87.26,-143.28 -83.85,-227.99 3.42,-84.7 39.61,-163.01 101.92,-220.5 62.31,-57.48 143.27,-87.26 227.98,-83.85 84.72,3.41 163.02,39.6 220.51,101.92 57.48,62.31 87.26,143.27 83.85,227.98 l 1.99,0.08 -1.99,-0.08 c -3.41,84.7 -39.61,163.01 -101.92,220.5 -62.31,57.48 -143.28,87.27 -227.99,83.85 -34.47,-1.39 -67.89,-8.2 -99.26,-20 z m 225.49,-597.96 c -31.77,-11.95 -65.6,-18.86 -100.51,-20.26 -85.78,-3.45 -167.76,26.7 -230.84,84.9 -63.1,58.2 -99.75,137.49 -103.2,223.26 -3.45,85.77 26.7,167.76 84.9,230.84 58.2,63.1 137.49,99.75 223.27,103.2 85.77,3.45 167.74,-26.7 230.84,-84.91 63.08,-58.2 99.73,-137.49 103.19,-223.26 3.45,-85.77 -26.7,-167.75 -84.9,-230.84 -34.51,-37.41 -76.45,-65.53 -122.75,-82.93"/><path id="path92" style="fill:#f7991c;fill-opacity:1;fill-rule:nonzero;stroke:none" d="m 3298.97,1265.22 c -76.96,-28.93 -142.93,-8.32 -185,50.47 l 174.88,65.76 -15.63,41.55 -181.21,-68.13 c -1.78,4.08 -3.58,8.13 -5.19,12.42 -0.53,1.39 -0.88,2.74 -1.38,4.13 l 187.76,70.59 -15.62,41.55 -183.28,-68.9 c -12.66,81.43 27.42,144.76 105.68,174.19 32.92,12.38 63.19,15.72 86.14,13.6 l -3.36,46.39 c -16.16,1.96 -51.3,0.83 -100.68,-17.74 -106.45,-40.03 -159.93,-132.23 -142.01,-236.83 l -41.92,-15.76 15.62,-41.56 37.68,14.17 c 0.7,-1.98 1.2,-3.94 1.94,-5.93 1.4,-3.72 3.03,-7.09 4.52,-10.66 l -44.11,-16.59 15.62,-41.55 48.95,18.4 c 55.97,-88.85 150.59,-112.39 246.15,-76.46 48.21,18.13 82.3,41.68 97.57,58.15 l -25.83,36.59 c -16.82,-17.73 -46.13,-36.13 -77.29,-47.85"/><path id="path94" style="fill:#3252ab;fill-opacity:1;fill-rule:nonzero;stroke:none" d="m 4314.99,470.449 h -318.48 c -96.02,0 -173.86,111.492 -173.86,249.039 v 249.043 h 669.24 l -3.02,-249.043 c 0,-137.547 -77.85,-249.039 -173.88,-249.039"/><path id="path96" style="fill:#fac864;fill-opacity:1;fill-rule:nonzero;stroke:none" d="m 2872.42,712.82 h -765.4 v 79.989 h 765.4 V 712.82"/><path id="path98" style="fill:#fac864;fill-opacity:1;fill-rule:nonzero;stroke:none" d="m 2791.05,634.172 h -765.4 v 79.988 h 765.4 v -79.988"/><path id="path100" style="fill:#fac864;fill-opacity:1;fill-rule:nonzero;stroke:none" d="m 2757.72,555.531 h -765.4 v 79.989 h 765.4 v -79.989"/><path id="path102" style="fill:#fac864;fill-opacity:1;fill-rule:nonzero;stroke:none" d="m 2812.85,476.879 h -765.41 v 79.992 h 765.41 v -79.992"/><path id="path104" style="fill:#fac864;fill-opacity:1;fill-rule:nonzero;stroke:none" d="m 2871.99,715.559 h -765.4 v 79.992 h 765.4 v -79.992"/><path id="path106" style="fill:#f7991c;fill-opacity:1;fill-rule:nonzero;stroke:none" d="m 2106.59,795.551 765.4,-79.992 h -765.4 z"/><path id="path108" style="fill:#fbc950;fill-opacity:1;fill-rule:nonzero;stroke:none" d="m 2871.99,795.551 v -79.992 l -765.4,79.992 z"/><path id="path110" style="fill:#fbc950;fill-opacity:1;fill-rule:nonzero;stroke:none" d="m 2193.78,715.75 h -19.71 v 79.801 h 19.71 V 715.75"/><path id="path112" style="fill:#fbc950;fill-opacity:1;fill-rule:nonzero;stroke:none" d="m 2299.63,715.75 h -19.72 v 79.801 h 19.72 V 715.75"/><path id="path114" style="fill:#fbc950;fill-opacity:1;fill-rule:nonzero;stroke:none" d="m 2417.92,715.75 h -19.71 v 79.801 h 19.71 V 715.75"/><path id="path116" style="fill:#fbc950;fill-opacity:1;fill-rule:nonzero;stroke:none" d="m 2529.99,715.75 h -19.72 v 79.801 h 19.72 V 715.75"/><path id="path118" style="fill:#fbc950;fill-opacity:1;fill-rule:nonzero;stroke:none" d="m 2660.74,715.75 h -19.72 v 79.801 h 19.72 V 715.75"/><path id="path120" style="fill:#fbc950;fill-opacity:1;fill-rule:nonzero;stroke:none" d="m 2788.37,715.75 h -19.71 v 79.801 h 19.71 V 715.75"/><path id="path122" style="fill:#fac864;fill-opacity:1;fill-rule:nonzero;stroke:none" d="m 2791.05,634.172 h -765.4 v 79.988 h 765.4 v -79.988"/><path id="path124" style="fill:#f7991c;fill-opacity:1;fill-rule:nonzero;stroke:none" d="m 2025.65,714.16 765.4,-79.988 h -765.4 z"/><path id="path126" style="fill:#fbc950;fill-opacity:1;fill-rule:nonzero;stroke:none" d="m 2791.05,714.16 v -79.988 l -765.4,79.988 z"/><path id="path128" style="fill:#fbc950;fill-opacity:1;fill-rule:nonzero;stroke:none" d="m 2112.85,634.371 h -19.72 v 79.789 h 19.72 v -79.789"/><path id="path130" style="fill:#fbc950;fill-opacity:1;fill-rule:nonzero;stroke:none" d="m 2218.69,634.371 h -19.72 v 79.789 h 19.72 v -79.789"/><path id="path132" style="fill:#fbc950;fill-opacity:1;fill-rule:nonzero;stroke:none" d="m 2336.98,634.371 h -19.71 v 79.789 h 19.71 v -79.789"/><path id="path134" style="fill:#fbc950;fill-opacity:1;fill-rule:nonzero;stroke:none" d="m 2449.05,634.371 h -19.71 v 79.789 h 19.71 v -79.789"/><path id="path136" style="fill:#fbc950;fill-opacity:1;fill-rule:nonzero;stroke:none" d="m 2579.8,634.371 h -19.72 v 79.789 h 19.72 v -79.789"/><path id="path138" style="fill:#fbc950;fill-opacity:1;fill-rule:nonzero;stroke:none" d="m 2707.43,634.371 h -19.72 v 79.789 h 19.72 v -79.789"/><path id="path140" style="fill:#fac864;fill-opacity:1;fill-rule:nonzero;stroke:none" d="m 2757.72,552.781 h -765.4 v 79.989 h 765.4 v -79.989"/><path id="path142" style="fill:#f7991c;fill-opacity:1;fill-rule:nonzero;stroke:none" d="m 1992.32,632.77 765.4,-79.989 h -765.4 z"/><path id="path144" style="fill:#fbc950;fill-opacity:1;fill-rule:nonzero;stroke:none" d="m 2757.72,632.77 v -79.989 l -765.4,79.989 z"/><path id="path146" style="fill:#fbc950;fill-opacity:1;fill-rule:nonzero;stroke:none" d="m 2079.52,552.98 h -19.72 v 79.79 h 19.72 v -79.79"/><path id="path148" style="fill:#fbc950;fill-opacity:1;fill-rule:nonzero;stroke:none" d="m 2185.36,552.98 h -19.72 v 79.79 h 19.72 v -79.79"/><path id="path150" style="fill:#fbc950;fill-opacity:1;fill-rule:nonzero;stroke:none" d="m 2303.65,552.98 h -19.71 v 79.79 h 19.71 v -79.79"/><path id="path152" style="fill:#fbc950;fill-opacity:1;fill-rule:nonzero;stroke:none" d="m 2415.72,552.98 h -19.71 v 79.79 h 19.71 v -79.79"/><path id="path154" style="fill:#fbc950;fill-opacity:1;fill-rule:nonzero;stroke:none" d="m 2546.46,552.98 h -19.71 v 79.79 h 19.71 v -79.79"/><path id="path156" style="fill:#fbc950;fill-opacity:1;fill-rule:nonzero;stroke:none" d="m 2674.1,552.98 h -19.72 v 79.79 h 19.72 v -79.79"/><path id="path158" style="fill:#fac864;fill-opacity:1;fill-rule:nonzero;stroke:none" d="m 2812.85,472.332 h -765.41 v 79.988 h 765.41 v -79.988"/><path id="path160" style="fill:#f7991c;fill-opacity:1;fill-rule:nonzero;stroke:none" d="m 2047.44,552.32 765.41,-79.988 h -765.41 z"/><path id="path162" style="fill:#fbc950;fill-opacity:1;fill-rule:nonzero;stroke:none" d="M 2812.85,552.32 V 472.332 L 2047.44,552.32 Z"/><path id="path164" style="fill:#fbc950;fill-opacity:1;fill-rule:nonzero;stroke:none" d="m 2134.64,472.52 h -19.72 v 79.8 h 19.72 v -79.8"/><path id="path166" style="fill:#fbc950;fill-opacity:1;fill-rule:nonzero;stroke:none" d="m 2240.48,472.52 h -19.71 v 79.8 h 19.71 v -79.8"/><path id="path168" style="fill:#fbc950;fill-opacity:1;fill-rule:nonzero;stroke:none" d="m 2358.77,472.52 h -19.71 v 79.8 h 19.71 v -79.8"/><path id="path170" style="fill:#fbc950;fill-opacity:1;fill-rule:nonzero;stroke:none" d="m 2470.84,472.52 h -19.71 v 79.8 h 19.71 v -79.8"/><path id="path172" style="fill:#fbc950;fill-opacity:1;fill-rule:nonzero;stroke:none" d="m 2601.59,472.52 h -19.71 v 79.8 h 19.71 v -79.8"/><path id="path174" style="fill:#fbc950;fill-opacity:1;fill-rule:nonzero;stroke:none" d="m 2729.22,472.52 h -19.71 v 79.8 h 19.71 v -79.8"/><path id="path176" style="fill:#e01d25;fill-opacity:1;fill-rule:nonzero;stroke:none" d="m 3779.46,460.531 h -152.55 c -6.28,0 -9.42,6.989 -4.93,11.039 l 75.28,67.918 -6.64,31.602 59.54,7.25 9.34,-37.61 19.96,-80.199"/><path id="path178" style="fill:#ec8983;fill-opacity:1;fill-rule:nonzero;stroke:none" d="m 3759.5,540.73 -62.04,-1.23 -10.49,47.398 64.23,6.352 8.3,-52.52"/><path id="path180" style="fill:#e01d25;fill-opacity:1;fill-rule:nonzero;stroke:none" d="m 4218.08,460.531 h -152.55 c -6.28,0 -9.43,7.578 -4.93,11.949 l 75.28,73.551 -6.64,34.199 59.53,7.86 9.35,-40.731 19.96,-86.828"/><path id="path182" style="fill:#ec8983;fill-opacity:1;fill-rule:nonzero;stroke:none" d="m 4198.12,547.359 -62.24,-1.328 -6.64,34.199 59.53,7.86 9.35,-40.731"/><path id="path184" style="fill:#4d73c2;fill-opacity:1;fill-rule:nonzero;stroke:none" d="m 4006.72,1346.07 3.94,-3.34 c 0,0 71.37,-126.64 67.73,-235.96 -3.64,-109.321 14.58,-193.141 14.58,-193.141 l 125.11,-307.32 c 0,0 -46.16,-49.809 -94.75,-35.227 l -150.62,286.668 -78.96,232.02 c 0,0 -100.82,-138.481 -162.77,-189.5 0,0 25.99,-66.809 48.59,-309.75 0,0 -88.67,-20.649 -110.54,-10.93 l -68.02,332.832 199.2,327.968 -26.13,66.42 232.64,39.26"/><path id="path186" style="fill:#3252ab;fill-opacity:1;fill-rule:nonzero;stroke:none" d="m 4065.33,1258.92 c 0,0 -159.1,-62.94 -276.59,-30.33 l -115.16,276.3 c 0,0 -24.6,83.82 38.27,127.55 62.86,43.73 156.69,10.93 215.01,-110.23 58.3,-121.17 138.47,-263.29 138.47,-263.29"/><path id="path188" style="fill:#ec8983;fill-opacity:1;fill-rule:nonzero;stroke:none" d="m 3464.4,1345.72 c 0,0 -100.99,4.52 -119.21,0 -18.23,-4.51 -34.62,-30.03 -34.62,-30.03 l 20.05,-27.32 56.87,17.62 c 0,0 43.2,-27.56 72.42,-14.39 29.22,13.17 4.49,54.12 4.49,54.12"/><path id="path190" style="fill:#e01d25;fill-opacity:1;fill-rule:nonzero;stroke:none" d="m 3638.54,1780.32 c 0,0 -33.16,-3.64 -41.18,32.8 -8.01,36.44 13.85,58.31 41.18,47.38 0,0 -12.27,41.9 30.31,40.09 42.58,-1.83 58.97,-34.63 58.97,-34.63 0,0 49.2,27.29 71.07,-25.53 21.85,-52.81 -25.52,-136.63 -25.52,-136.63 l -36.79,-26.5 -98.04,103.02"/><path id="path192" style="fill:#ec8983;fill-opacity:1;fill-rule:nonzero;stroke:none" d="m 3633.75,1796.61 -12.75,-125.72 46.21,-6.56 21.86,-54.67 c 0,0 54.66,-3.64 67.42,32.8 l -32.8,57.39 c 0,0 43.73,46.47 1.83,50.11 l -18.23,-11.84 c 0,0 -20.95,6.37 -7.28,37.35 13.66,30.98 -66.26,21.14 -66.26,21.14"/><path id="path194" style="fill:#4d73c2;fill-opacity:1;fill-rule:nonzero;stroke:none" d="m 3818.93,1609.56 c -63.77,44.24 -81.98,-10.53 -81.98,-10.53 0,0 -41.99,-109.36 -54.92,-204.23 l -217.63,-49.08 -4.49,-54.12 c 0,0 246.82,-34.56 277.66,-13.93 27.43,18.36 92.19,189.03 106.12,226.44 v 0 c 0,0 39.01,61.21 -24.76,105.45"/><path id="path196" style="fill:#4d73c2;fill-opacity:1;fill-rule:nonzero;stroke:none" d="m 2222.84,2528.78 h -39.52 v 39.53 h -21.39 v -39.53 h -39.52 v -21.38 h 39.52 v -39.52 h 21.39 v 39.52 h 39.52 v 21.38"/><path id="path198" style="fill:#7fa8de;fill-opacity:1;fill-rule:nonzero;stroke:none" d="m 4550.44,2662.72 -16.23,16.23 -42.31,-42.31 -42.31,42.31 -16.23,-16.23 42.31,-42.31 -42.32,-42.32 16.23,-16.23 42.32,42.32 42.31,-42.31 16.23,16.23 -42.31,42.31 42.31,42.31"/><path id="path200" style="fill:#ffffff;fill-opacity:1;fill-rule:nonzero;stroke:none" d="m 3972.96,2959.12 h -49.91 v 49.91 h -27.01 v -49.91 h -49.91 v -27 h 49.91 v -49.91 h 27.01 v 49.91 h 49.91 v 27"/><path id="path202" style="fill:#ec8983;fill-opacity:1;fill-rule:nonzero;stroke:none" d="m 1621.45,1308.79 v -55.85 l -21.5,-41.93 -4.24,87.15 c 0,0 -22.15,18.96 -12.66,42.33 9.47,23.37 38.4,-31.7 38.4,-31.7"/><path id="path204" style="fill:#28439e;fill-opacity:1;fill-rule:nonzero;stroke:none" d="m 1550.08,1755.4 c -71.04,-4.2 -15.21,-77.19 -15.21,-77.19 0,0 60.38,-88.83 125.06,-148.18 l -76.88,-189.54 38.4,-31.7 c 0,0 155.13,167.77 155.73,201.79 0.53,30.26 -118.66,179.32 -139.53,209.39 v 0 c 0,0 -37.55,38.39 -87.57,35.43"/><path id="path206" style="fill:#f79795;fill-opacity:1;fill-rule:nonzero;stroke:none" d="m 2400.01,1638.93 c 0,0 61.84,84.98 126.03,75.06 l 37.08,-16.1 c 0,0 -4.23,-22.99 -27.22,-18.56 -22.99,4.42 -38.96,-3.66 -38.96,-3.66 l -39.56,-38.51 -57.37,1.77"/><path id="path208" style="fill:#e01d25;fill-opacity:1;fill-rule:nonzero;stroke:none" d="m 1540.27,552.762 56.79,-1.133 c 2.3,-1.738 5.26,1.172 8.75,0.871 l 71.95,-68.91 c 4.5,-4.051 1.36,-11.051 -4.92,-11.051 h -136.63 l 4.06,80.223"/><path id="path210" style="fill:#e01d25;fill-opacity:1;fill-rule:nonzero;stroke:none" d="m 1293.81,552.762 56.79,-1.133 c 2.31,-1.738 5.27,1.172 8.75,0.871 l 71.96,-68.91 c 4.49,-4.051 1.35,-11.051 -4.93,-11.051 h -136.62 l 4.05,80.223"/><path id="path212" style="fill:#4d73c2;fill-opacity:1;fill-rule:nonzero;stroke:none" d="m 1591.15,1392.25 40.74,-839.488 -101.86,-7.961 -33.56,405.449 -16.91,230.83 -38.45,-208.451 -66.32,-425.078 h -89.86 L 1317,995 l 23.51,361.35 250.64,35.9"/><path id="path214" style="fill:#e01d25;fill-opacity:1;fill-rule:nonzero;stroke:none" d="m 1401.94,1842.09 -34.96,6.99 -23.77,124.45 c 0,0 16.78,72.71 58.73,68.51 41.95,-4.19 99.49,31.75 127.69,10.95 24.26,-17.88 20.36,-118.61 -42.39,-125.61 l -85.3,-85.29"/><path id="path216" style="fill:#3252ab;fill-opacity:1;fill-rule:nonzero;stroke:none" d="m 1282.13,1719.97 c 0,0 130.04,59.93 309.02,30.03 v -322.92 c 0,0 13.98,-43.35 6.99,-56.81 0,0 -139.83,-71.75 -278.26,-37.37 0,0 -9.79,28.4 6.99,58.3 0,0 1.4,244.91 -44.74,328.77"/><path id="path218" style="fill:#ec8983;fill-opacity:1;fill-rule:nonzero;stroke:none" d="m 1401.32,1915.86 c 0,0 -19.49,11.92 -23.03,0 -3.54,-11.92 -5.32,-31.88 11.51,-30.85 l 12.86,-31 -13.36,-105.29 c 0,0 42.14,-34.57 82.88,5.66 l 3.55,74.99 40.74,16.59 -19.48,117.59 c 0,0 -37.21,-33.78 -72.64,0 l -7.08,-67.57 -14.18,-1.99 -1.77,21.87"/><path id="path220" style="fill:#3252ab;fill-opacity:1;fill-rule:nonzero;stroke:none" d="m 2056.53,1621.64 206.1,-21.43 157.78,73.79 36.97,-36.84 c 0,0 -129.29,-110.01 -161.87,-119.34 -32.58,-9.31 -242.09,14.94 -242.09,14.94 0,0 -43.31,8.65 -51.1,53.82 -7.78,45.18 54.21,35.06 54.21,35.06"/><path id="path222" style="fill:#f7991c;fill-opacity:1;fill-rule:nonzero;stroke:none" d="m 2984.25,1436.92 c -77.31,-194.75 -297.85,-289.97 -492.61,-212.67 -194.76,77.3 -289.98,297.86 -212.68,492.62 77.31,194.75 297.86,289.97 492.62,212.66 194.75,-77.29 289.97,-297.85 212.67,-492.61"/><path id="path224" style="fill:#fbc950;fill-opacity:1;fill-rule:nonzero;stroke:none" d="m 2934.23,1450.54 c -77.3,-194.76 -297.85,-289.97 -492.61,-212.67 -194.76,77.31 -289.97,297.85 -212.67,492.61 77.3,194.75 297.85,289.97 492.61,212.67 194.76,-77.3 289.97,-297.85 212.67,-492.61"/><path id="path226" style="fill:#f7991c;fill-opacity:1;fill-rule:nonzero;stroke:none" d="m 2710.66,1880.64 c -2.49,1.06 -4.99,2.09 -7.52,3.09 -78.79,31.28 -165.05,30 -242.89,-3.6 -77.83,-33.61 -137.92,-95.5 -169.19,-174.3 -63.57,-160.16 12.84,-341.85 170.47,-409.03 2.47,-1.05 4.93,-2.06 7.43,-3.06 162.67,-64.56 347.53,15.25 412.09,177.91 31.27,78.8 29.99,165.06 -3.61,242.89 -32.52,75.34 -91.57,134.05 -166.78,166.1 z m -250.68,-587.5 c -159.63,68.01 -236.99,251.98 -172.62,414.15 31.67,79.79 92.51,142.47 171.32,176.49 78.81,34.02 166.14,35.32 245.93,3.65 79.75,-31.64 142.46,-92.51 176.48,-171.32 34.03,-78.81 35.32,-166.14 3.66,-245.92 -65.37,-164.7 -252.55,-245.51 -417.25,-180.14 -2.52,1 -5.04,2.03 -7.52,3.09"/><path id="path228" style="fill:#f7991c;fill-opacity:1;fill-rule:nonzero;stroke:none" d="m 2477.33,1374.92 23.32,54.73 c -31.2,13.93 -59.55,37.54 -72.73,59.17 l 28.46,30.76 c 13.97,-21.32 37.77,-43.62 68.11,-56.55 38.47,-16.39 73.94,-5.27 87.11,25.62 12.69,29.81 -0.59,57.23 -33.76,90.58 -46.03,45.22 -69.55,84.7 -49.46,131.83 19.16,44.98 65.67,65.49 118.99,52.38 l 23.32,54.73 33.6,-14.32 -22.4,-52.56 c 32.05,-14.94 50.57,-33.08 62.35,-48.99 l -28.78,-29.99 c -8.61,11.36 -25.74,32.75 -60.42,47.52 -41.72,17.79 -68.06,-0.45 -77.3,-22.12 -12,-28.17 2.04,-50.82 40.87,-90.41 46.12,-46.53 62.29,-86.71 41.74,-134.95 -18.24,-42.8 -65.13,-70.19 -124.87,-55.62 l -24.01,-56.36 -34.14,14.55"/><path id="path230" style="fill:#f79795;fill-opacity:1;fill-rule:nonzero;stroke:none" d="m 1841.32,471.309 h 130.09 c 0,0 -6.62,26.101 -34.61,31.562 -11.3,2.219 -20.55,8.277 -27.59,14.719 -10.46,9.531 -16.01,19.898 -16.01,19.898 0,0 72.66,269.801 102.6,361.614 l -63.91,71.777 -38.32,-36.09 c 0,0 -27.67,-252.641 -60.02,-396.379 -3.29,-14.719 -6.67,-28.32 -10.04,-40.351 -3.75,-13.278 5.23,-26.75 17.81,-26.75"/><path id="path232" style="fill:#f79795;fill-opacity:1;fill-rule:nonzero;stroke:none" d="m 2109.73,830.801 49.61,-300.25 6.76,-40.871 c 1.76,-10.649 10.13,-18.371 19.9,-18.371 h 101.67 c 0,0 2.5,26.562 -30.87,33.371 -7.08,1.468 -13.37,4.531 -18.83,8.652 h -0.05 c -20.13,15.09 -29.38,44.047 -29.34,56.918 0.09,16.379 -9.86,298.82 -9.86,298.82 l -88.99,-38.269"/><path id="path234" style="fill:#28439e;fill-opacity:1;fill-rule:nonzero;stroke:none" d="m 2002.36,1939.9 c 0,0 108.8,-0.57 110.79,-66.03 2.01,-65.45 -50.97,-146.32 -40.08,-173.81 10.89,-27.49 9.29,-179.19 -139.61,-193.33 -148.9,-14.15 -169.81,86.66 -126.32,162.48 43.5,75.83 124.81,255.24 195.22,270.69"/><path id="path236" style="fill:#3252ab;fill-opacity:1;fill-rule:nonzero;stroke:none" d="m 2169.87,1406.02 21.65,-135.93 36.44,-439.328 c 0,0 -158.71,-121.723 -325.74,-55.262 0,0 -47.78,37.738 -108.72,28.32 l 148.08,457.87 c 0,0 38.16,134.98 81.44,153.13 75.09,31.51 146.85,-8.8 146.85,-8.8"/><path id="path238" style="fill:#28439e;fill-opacity:1;fill-rule:nonzero;stroke:none" d="m 1964.68,1540.27 58.34,-124.8 c 0,0 87.02,-32.34 146.85,-8.35 l 14.51,129.27 c 0,0 -24.06,35.14 -51.26,74.11 -17.66,25.3 -73.35,29.72 -96.64,9.5 l -71.8,-79.73"/><path id="path240" style="fill:#f79795;fill-opacity:1;fill-rule:nonzero;stroke:none" d="m 2341.89,1494.01 c 0,0 87.73,57.86 144.36,26.03 l 29.06,-28.1 c 0,0 -12.03,-20.03 -32,-7.82 -19.98,12.22 -37.76,10.26 -37.76,10.26 l -50.57,-22.16 -53.09,21.79"/><path id="path242" style="fill:#e01d25;fill-opacity:1;fill-rule:nonzero;stroke:none" d="m 2153.45,551.578 56.79,-1.117 c 2.31,-1.742 5.27,1.16 8.75,0.871 l 71.96,-68.91 c 4.49,-4.063 1.35,-11.051 -4.93,-11.051 h -140.6 l 8.03,80.207"/><path id="path244" style="fill:#e01d25;fill-opacity:1;fill-rule:nonzero;stroke:none" d="m 1833.31,551.578 56.79,-1.117 c 2.3,-1.742 5.26,1.16 8.74,0.871 l 71.97,-68.91 c 4.49,-4.063 1.35,-11.051 -4.94,-11.051 h -148.54 l 15.98,80.207"/><path id="path246" style="fill:#ec8983;fill-opacity:1;fill-rule:nonzero;stroke:none" d="m 2113.15,1873.87 c 0,0 11.88,-24.58 16.79,-94.43 4.9,-69.84 -3.88,-64.65 -3.88,-64.65 l -34.56,-10.96 -16.97,-80.63 -87.31,-12.47 c 0,0 47.62,30.66 49.28,93.1 1.67,62.44 -33.21,32.44 -25.77,77.44 7.44,45 29.11,-1.67 29.11,-1.67 0,0 58.3,15.2 73.31,94.27"/><path id="path248" style="fill:#4d73c2;fill-opacity:1;fill-rule:nonzero;stroke:none" d="m 2050,1616.77 149.66,-110.75 173.64,13.68 21.68,-47.48 c 0,0 -159.69,-57.6 -193.46,-54.9 -33.78,2.72 -221.43,99.01 -221.43,99.01 0,0 -28.09,22.49 -28.95,68.33 -0.75,40.47 28.49,48.37 52.48,48.08 16.75,-0.2 32.92,-6.02 46.38,-15.97"/><path id="path250" style="fill:#28439e;fill-opacity:1;fill-rule:nonzero;stroke:none" d="m 1282.13,1719.97 c 0,0 -104.96,-199.85 -61.96,-346.78 0,0 84.61,-77.4 296.3,53.68 l -19.79,66.07 -184.74,-31.1 c 0,0 40.81,201.82 -29.81,258.13"/><path id="path252" style="fill:#ec8983;fill-opacity:1;fill-rule:nonzero;stroke:none" d="m 1496.68,1492.94 c 0,0 28.52,17.18 61.49,22.75 32.98,5.58 0,-11.37 0,-11.37 0,0 29.05,9.74 63.28,12.5 34.23,2.75 -40.76,-68.88 -40.76,-68.88 l -66.68,-12.87 -17.33,57.87"/><path id="path254" style="fill:#4d73c2;fill-opacity:1;fill-rule:nonzero;stroke:none" d="m 3272.36,2578.95 -1.26,-1.18 v -68.37 h -572.21 v -95.99 H 3271.1 V 2345 l 1.26,-1.18 125.53,117.57 -125.53,117.56"/><path id="path256" style="fill:#4d73c2;fill-opacity:1;fill-rule:nonzero;stroke:none" d="m 2706.26,2080.34 1.26,1.17 v 68.37 h 572.22 v 95.99 h -572.22 v 68.42 l -1.26,1.18 -125.52,-117.57 125.52,-117.56"/></g></g></svg>